<svg width="876" height="857" xmlns="http://www.w3.org/2000/svg" xmlns:xlink="http://www.w3.org/1999/xlink" xml:space="preserve" overflow="hidden"><g transform="translate(-572 -385)"><g><path d="M576 410.501C576 398.626 585.626 389 597.501 389L683.5 389C695.374 389 705 398.626 705 410.501L705 496.499C705 508.374 695.374 518 683.5 518L597.501 518C585.626 518 576 508.374 576 496.499Z" fill="#737373" fill-rule="evenodd" fill-opacity="1"/><path d="M760 410.501C760 398.626 769.626 389 781.501 389L868.5 389C880.374 389 890 398.626 890 410.501L890 496.5C890 508.374 880.374 518 868.5 518L781.501 518C769.626 518 760 508.374 760 496.5Z" fill="#FFC838" fill-rule="evenodd" fill-opacity="1"/><path d="M1315 410.501C1315 398.626 1324.63 389 1336.5 389L1423.5 389C1435.37 389 1445 398.626 1445 410.501L1445 496.5C1445 508.374 1435.37 518 1423.5 518L1336.5 518C1324.63 518 1315 508.374 1315 496.5Z" fill="#737373" fill-rule="evenodd" fill-opacity="1"/><path d="M945 410.501C945 398.626 954.626 389 966.5 389L1053.5 389C1065.37 389 1075 398.626 1075 410.501L1075 496.5C1075 508.374 1065.37 518 1053.5 518L966.5 518C954.626 518 945 508.374 945 496.5Z" fill="#737373" fill-rule="evenodd" fill-opacity="1"/><path d="M1130 410.501C1130 398.626 1139.63 389 1151.5 389L1238.5 389C1250.37 389 1260 398.626 1260 410.501L1260 496.5C1260 508.374 1250.37 518 1238.5 518L1151.5 518C1139.63 518 1130 508.374 1130 496.5Z" fill="#737373" fill-rule="evenodd" fill-opacity="1"/><path d="M576 1129.5C576 1117.63 585.626 1108 597.501 1108L683.5 1108C695.374 1108 705 1117.63 705 1129.5L705 1216.5C705 1228.37 695.374 1238 683.5 1238L597.501 1238C585.626 1238 576 1228.37 576 1216.5Z" fill="#79B259" fill-rule="evenodd" fill-opacity="1"/><path d="M760 1129.67C760 1117.7 769.701 1108 781.667 1108L868.333 1108C880.299 1108 890 1117.7 890 1129.67L890 1216.33C890 1228.3 880.299 1238 868.333 1238L781.667 1238C769.701 1238 760 1228.3 760 1216.33Z" fill="#79B259" fill-rule="evenodd" fill-opacity="1"/><path d="M945 1129.67C945 1117.7 954.701 1108 966.667 1108L1053.33 1108C1065.3 1108 1075 1117.7 1075 1129.67L1075 1216.33C1075 1228.3 1065.3 1238 1053.33 1238L966.667 1238C954.701 1238 945 1228.3 945 1216.33Z" fill="#79B259" fill-rule="evenodd" fill-opacity="1"/><path d="M1130 1129.5C1130 1117.63 1139.63 1108 1151.5 1108L1237.5 1108C1249.37 1108 1259 1117.63 1259 1129.5L1259 1216.5C1259 1228.37 1249.37 1238 1237.5 1238L1151.5 1238C1139.63 1238 1130 1228.37 1130 1216.5Z" fill="#79B259" fill-rule="evenodd" fill-opacity="1"/><path d="M1314 1129.67C1314 1117.7 1323.7 1108 1335.67 1108L1422.33 1108C1434.3 1108 1444 1117.7 1444 1129.67L1444 1216.33C1444 1228.3 1434.3 1238 1422.33 1238L1335.67 1238C1323.7 1238 1314 1228.3 1314 1216.33Z" fill="#79B259" fill-rule="evenodd" fill-opacity="1"/><path d="M760 589.667C760 577.701 769.701 568 781.667 568L868.333 568C880.299 568 890 577.701 890 589.667L890 676.333C890 688.299 880.299 698 868.333 698L781.667 698C769.701 698 760 688.299 760 676.333Z" fill="#79B259" fill-rule="evenodd" fill-opacity="1"/><path d="M576 589.5C576 577.626 585.626 568 597.501 568L683.5 568C695.374 568 705 577.626 705 589.5L705 676.5C705 688.374 695.374 698 683.5 698L597.501 698C585.626 698 576 688.374 576 676.5Z" fill="#737373" fill-rule="evenodd" fill-opacity="1"/><path d="M945 589.667C945 577.701 954.701 568 966.667 568L1053.33 568C1065.3 568 1075 577.701 1075 589.667L1075 676.333C1075 688.299 1065.3 698 1053.33 698L966.667 698C954.701 698 945 688.299 945 676.333Z" fill="#737373" fill-rule="evenodd" fill-opacity="1"/><path d="M1130 589.667C1130 577.701 1139.7 568 1151.67 568L1238.33 568C1250.3 568 1260 577.701 1260 589.667L1260 676.333C1260 688.299 1250.3 698 1238.33 698L1151.67 698C1139.7 698 1130 688.299 1130 676.333Z" fill="#FFC838" fill-rule="evenodd" fill-opacity="1"/><path d="M1315 589.667C1315 577.701 1324.7 568 1336.67 568L1423.33 568C1435.3 568 1445 577.701 1445 589.667L1445 676.333C1445 688.299 1435.3 698 1423.33 698L1336.67 698C1324.7 698 1315 688.299 1315 676.333Z" fill="#737373" fill-rule="evenodd" fill-opacity="1"/><path d="M760 769.667C760 757.701 769.701 748 781.667 748L868.333 748C880.299 748 890 757.701 890 769.667L890 856.332C890 868.299 880.299 878 868.333 878L781.667 878C769.701 878 760 868.299 760 856.332Z" fill="#79B259" fill-rule="evenodd" fill-opacity="1"/><path d="M575 769.667C575 757.701 584.701 748 596.667 748L683.333 748C695.299 748 705 757.701 705 769.667L705 856.332C705 868.299 695.299 878 683.333 878L596.667 878C584.701 878 575 868.299 575 856.332Z" fill="#737373" fill-rule="evenodd" fill-opacity="1"/><path d="M945 769.667C945 757.701 954.701 748 966.667 748L1053.33 748C1065.3 748 1075 757.701 1075 769.667L1075 856.332C1075 868.299 1065.3 878 1053.33 878L966.667 878C954.701 878 945 868.299 945 856.332Z" fill="#FFC838" fill-rule="evenodd" fill-opacity="1"/><path d="M1129 769.667C1129 757.701 1138.7 748 1150.67 748L1237.33 748C1249.3 748 1259 757.701 1259 769.667L1259 856.333C1259 868.299 1249.3 878 1237.33 878L1150.67 878C1138.7 878 1129 868.299 1129 856.333Z" fill="#FFC838" fill-rule="evenodd" fill-opacity="1"/><path d="M1314 769.667C1314 757.701 1323.7 748 1335.67 748L1422.33 748C1434.3 748 1444 757.701 1444 769.667L1444 856.332C1444 868.299 1434.3 878 1422.33 878L1335.67 878C1323.7 878 1314 868.299 1314 856.332Z" fill="#737373" fill-rule="evenodd" fill-opacity="1"/><path d="M760 949.667C760 937.701 769.701 928 781.667 928L868.333 928C880.299 928 890 937.701 890 949.667L890 1036.33C890 1048.3 880.299 1058 868.333 1058L781.667 1058C769.701 1058 760 1048.3 760 1036.33Z" fill="#79B259" fill-rule="evenodd" fill-opacity="1"/><path d="M575 949.667C575 937.701 584.701 928 596.667 928L683.333 928C695.299 928 705 937.701 705 949.667L705 1036.33C705 1048.3 695.299 1058 683.333 1058L596.667 1058C584.701 1058 575 1048.3 575 1036.33Z" fill="#737373" fill-rule="evenodd" fill-opacity="1"/><path d="M945 949.667C945 937.701 954.701 928 966.667 928L1053.33 928C1065.3 928 1075 937.701 1075 949.667L1075 1036.33C1075 1048.3 1065.3 1058 1053.33 1058L966.667 1058C954.701 1058 945 1048.3 945 1036.33Z" fill="#79B259" fill-rule="evenodd" fill-opacity="1"/><path d="M1129 949.667C1129 937.701 1138.7 928 1150.67 928L1237.33 928C1249.3 928 1259 937.701 1259 949.667L1259 1036.33C1259 1048.3 1249.3 1058 1237.33 1058L1150.67 1058C1138.7 1058 1129 1048.3 1129 1036.33Z" fill="#79B259" fill-rule="evenodd" fill-opacity="1"/><path d="M1314 949.667C1314 937.701 1323.7 928 1335.67 928L1422.33 928C1434.3 928 1444 937.701 1444 949.667L1444 1036.33C1444 1048.3 1434.3 1058 1422.33 1058L1335.67 1058C1323.7 1058 1314 1048.3 1314 1036.33Z" fill="#737373" fill-rule="evenodd" fill-opacity="1"/></g></g></svg>